<svg
    xmlns="http://www.w3.org/2000/svg"
    xmlns:xlink="http://www.w3.org/1999/xlink"
    width="0.333in" height="0.264in">
    <path fill-rule="evenodd"  fill="rgb(102, 51, 51)"
    d="M23.371,18.367 C22.951,18.791 22.446,19.002 21.857,19.002 L2.143,19.002 C1.553,19.002 1.049,18.791 0.629,18.367 C0.210,17.945 -0.000,17.436 -0.000,16.842 L-0.000,6.125 C0.393,6.566 0.844,6.958 1.353,7.300 C4.585,9.513 6.803,11.065 8.009,11.956 C8.518,12.334 8.931,12.629 9.248,12.840 C9.565,13.052 9.987,13.268 10.513,13.488 C11.040,13.709 11.531,13.819 11.986,13.819 L12.000,13.819 L12.014,13.819 C12.469,13.819 12.960,13.709 13.486,13.488 C14.013,13.268 14.435,13.052 14.752,12.840 C15.069,12.629 15.482,12.334 15.991,11.956 C17.509,10.849 19.732,9.297 22.660,7.300 C23.170,6.949 23.616,6.557 24.000,6.125 L24.000,16.842 C24.000,17.436 23.790,17.944 23.371,18.367 ZM21.710,5.855 C18.353,8.204 16.263,9.666 15.442,10.242 C15.353,10.305 15.163,10.442 14.873,10.654 C14.583,10.865 14.342,11.036 14.150,11.167 C13.958,11.297 13.725,11.443 13.453,11.605 C13.181,11.767 12.924,11.889 12.683,11.969 C12.442,12.050 12.219,12.091 12.013,12.091 L12.000,12.091 L11.986,12.091 C11.781,12.091 11.558,12.050 11.317,11.969 C11.076,11.889 10.819,11.767 10.547,11.605 C10.274,11.443 10.042,11.297 9.850,11.167 C9.658,11.036 9.417,10.865 9.127,10.654 C8.837,10.442 8.647,10.305 8.558,10.242 C7.745,9.666 6.576,8.845 5.049,7.779 C3.522,6.713 2.607,6.072 2.303,5.856 C1.750,5.478 1.227,4.958 0.736,4.297 C0.245,3.635 -0.000,3.021 -0.000,2.454 C-0.000,1.752 0.185,1.167 0.556,0.699 C0.926,0.232 1.455,-0.002 2.143,-0.002 L21.857,-0.002 C22.437,-0.002 22.939,0.209 23.364,0.632 C23.788,1.055 24.000,1.563 24.000,2.157 C24.000,2.868 23.781,3.548 23.343,4.195 C22.906,4.843 22.361,5.396 21.710,5.855 Z"/>
</svg>