<svg
    xmlns="http://www.w3.org/2000/svg"
    xmlns:xlink="http://www.w3.org/1999/xlink"
    width="0.333in" height="0.333in">
    <path fill-rule="evenodd"  fill="rgb(102, 51, 51)"
    d="M12.000,-0.000 C5.373,-0.000 -0.000,5.373 -0.000,12.000 C-0.000,18.627 5.373,24.000 12.000,24.000 C18.627,24.000 24.000,18.627 24.000,12.000 C24.000,5.373 18.627,-0.000 12.000,-0.000 ZM18.337,17.509 L17.376,18.470 C17.205,18.641 16.702,18.748 16.686,18.748 C13.646,18.775 10.720,17.581 8.569,15.431 C6.413,13.273 5.218,10.336 5.250,7.286 C5.250,7.285 5.360,6.797 5.531,6.627 L6.492,5.666 C6.844,5.313 7.519,5.153 7.992,5.311 L8.194,5.379 C8.666,5.537 9.161,6.058 9.291,6.539 L9.775,8.313 C9.905,8.795 9.729,9.480 9.378,9.832 L8.736,10.473 C9.366,12.806 11.196,14.635 13.528,15.266 L14.169,14.625 C14.522,14.272 15.208,14.096 15.688,14.226 L17.462,14.711 C17.943,14.843 18.464,15.335 18.622,15.807 L18.690,16.012 C18.847,16.484 18.688,17.159 18.337,17.509 Z"/>
</svg>